<svg xmlns="http://www.w3.org/2000/svg" version="1.1" xmlns:xlink="http://www.w3.org/1999/xlink" xmlns:svgjs="http://svgjs.com/svgjs" width="512" height="512" x="0" y="0" viewBox="0 0 32 32" style="enable-background:new 0 0 512 512" xml:space="preserve" class=""><g><path d="M16 8.67a.5.5 0 0 0 .5-.5V5.22a.5.5 0 0 0-1 0v2.95a.5.5 0 0 0 .5.5zM16 23.33a.5.5 0 0 0-.5.5v2.95a.5.5 0 0 0 1 0v-2.95a.5.5 0 0 0-.5-.5zM10.11 10.817a.498.498 0 0 0 .708 0 .5.5 0 0 0 0-.707L8.73 8.023a.5.5 0 0 0-.707.707zM21.891 21.183a.5.5 0 0 0-.707.707l2.086 2.086a.498.498 0 0 0 .708 0 .5.5 0 0 0 0-.707zM8.67 16a.5.5 0 0 0-.5-.5H5.22a.5.5 0 0 0 0 1h2.95a.5.5 0 0 0 .5-.5zM26.78 15.5h-2.95a.5.5 0 0 0 0 1h2.95a.5.5 0 0 0 0-1zM10.11 21.183 8.023 23.27a.5.5 0 0 0 .708.707l2.086-2.086a.5.5 0 0 0-.707-.708zM21.537 10.963a.502.502 0 0 0 .354-.146l2.086-2.086a.5.5 0 0 0-.707-.707l-2.086 2.086a.5.5 0 0 0 .353.853zM16 21.537c-3.053 0-5.537-2.484-5.537-5.537s2.484-5.537 5.537-5.537 5.537 2.484 5.537 5.537-2.484 5.537-5.537 5.537zm0-10.074c-2.501 0-4.537 2.035-4.537 4.537s2.035 4.537 4.537 4.537 4.537-2.035 4.537-4.537A4.542 4.542 0 0 0 16 11.463z" fill="#ffffff" data-original="#000000" class="" opacity="1"></path></g></svg>
